# xmcd
#
# Track frame offsets:
#	170
#	18343
#	31879
#	49922
#	61003
#	92424
#	109308
#	122376
#	138026
#	156850
#	177735
#
# Disc length: 2669 seconds
#
# Revision: 1
# Processed by: cddbd v1.5.2PL0 Copyright (c) Steve Scherf et al.
# Submitted via: audiograbber 1.83.01
#
DISCID=850a6b0b
DTITLE=Roger Seitz - Stella
DYEAR=1900
DGENRE=Folk
TTITLE0=Sky Boat Song
TTITLE1=Dirty old Town
TTITLE2=Jig of Slurs, Marry Blacksmith, Boys of Malin
TTITLE3=The Rising of the Moon
TTITLE4=The Town I loved so well
TTITLE5=Kalope Set
TTITLE6=Irish Rover
TTITLE7=My Youngest Son came Home
TTITLE8=Goin to well for Water, The Morning Dew, Farwell to Ireland
TTITLE9=Deroll in the Rain
TTITLE10=Red is the Rose
EXTD=
EXTT0=
EXTT1=
EXTT2=
EXTT3=
EXTT4=
EXTT5=
EXTT6=
EXTT7=
EXTT8=
EXTT9=
EXTT10=
PLAYORDER=
